<?xml version="1.0" encoding="iso-8859-1"?>
<!-- Generator: Adobe Illustrator 26.3.1, SVG Export Plug-In . SVG Version: 6.00 Build 0)  -->
<svg version="1.1" id="Layer_1" xmlns="http://www.w3.org/2000/svg" xmlns:xlink="http://www.w3.org/1999/xlink" x="0px" y="0px"
	 viewBox="0 0 1920 1080" style="enable-background:new 0 0 1920 1080;" xml:space="preserve">
<g>
	<g>
		
			<linearGradient id="XMLID_00000142172000653679384390000002201452006304437413_" gradientUnits="userSpaceOnUse" x1="210" y1="-210" x2="1710" y2="1290" gradientTransform="matrix(1 0 0 -1 0 1080)">
			<stop  offset="0" style="stop-color:#FC506E"/>
			<stop  offset="0.0547" style="stop-color:#FC4A6F"/>
			<stop  offset="0.1306" style="stop-color:#FD3873"/>
			<stop  offset="0.2187" style="stop-color:#FE1A79"/>
			<stop  offset="0.2477" style="stop-color:#FF0F7B"/>
			<stop  offset="0.2761" style="stop-color:#F30E80"/>
			<stop  offset="0.3826" style="stop-color:#CC0A91"/>
			<stop  offset="0.4931" style="stop-color:#AC069F"/>
			<stop  offset="0.6069" style="stop-color:#9403AA"/>
			<stop  offset="0.7256" style="stop-color:#8201B2"/>
			<stop  offset="0.8521" style="stop-color:#7700B7"/>
			<stop  offset="1" style="stop-color:#7400B8"/>
		</linearGradient>
		
			<rect id="XMLID_00000163058380243061568850000003898280616982188977_" style="fill:url(#XMLID_00000142172000653679384390000002201452006304437413_);" width="1920" height="1080"/>
	</g>
	<g>
		<g>
			<defs>
				<rect id="SVGID_1_" width="1920" height="1080"/>
			</defs>
			<clipPath id="SVGID_00000045581369597315386960000000737768112905346455_">
				<use xlink:href="#SVGID_1_"  style="overflow:visible;"/>
			</clipPath>
		</g>
	</g>
	<g>
		<g>
			<defs>
				<rect id="SVGID_00000169518936747007945520000008494850231132272016_" width="1920" height="1080"/>
			</defs>
			<clipPath id="SVGID_00000097500321251476083660000013660154558925947272_">
				<use xlink:href="#SVGID_00000169518936747007945520000008494850231132272016_"  style="overflow:visible;"/>
			</clipPath>
		</g>
	</g>
	<g>
		<g>
			<defs>
				<rect id="SVGID_00000025421030096518676700000017704012237303943595_" width="1920" height="1080"/>
			</defs>
			<clipPath id="SVGID_00000050643629508177965620000002540430457010127502_">
				<use xlink:href="#SVGID_00000025421030096518676700000017704012237303943595_"  style="overflow:visible;"/>
			</clipPath>
		</g>
	</g>
	<g>
		<g>
			<defs>
				<rect id="SVGID_00000026843272952655064070000011714795312309700543_" width="1920" height="1080"/>
			</defs>
			<clipPath id="SVGID_00000157301647759050075970000014225251236815111356_">
				<use xlink:href="#SVGID_00000026843272952655064070000011714795312309700543_"  style="overflow:visible;"/>
			</clipPath>
		</g>
	</g>
	<g>
		<g>
			<defs>
				<rect id="SVGID_00000028323199331007199620000007885371999853698749_" width="1920" height="1080"/>
			</defs>
			<clipPath id="SVGID_00000021817831425619686690000015494193460649958313_">
				<use xlink:href="#SVGID_00000028323199331007199620000007885371999853698749_"  style="overflow:visible;"/>
			</clipPath>
			<path style="clip-path:url(#SVGID_00000021817831425619686690000015494193460649958313_);fill:#8B26C3;" d="M29.638,694.312
				c0,0,140.247,110.711,98.977,240.779c13.552-9.958,87.565-62.27,189.578-46.276c103.682,16.255,158.401,90.863,167.843,104.209
				c-6.503,16.677-49.284,121.143-166.94,165.947c-121.951,46.438-226.899-8.331-241.959-16.522
				c-10.918-4.751-127.383-57.821-153.099-186.013C-95.641,858.339-54.28,755.617,29.638,694.312z"/>
		</g>
	</g>
	<path style="fill:#DB00B6;" d="M1857.978,407.511c0,0-122.622-129.962-62.843-252.63c-14.858,7.878-95.703,48.849-194.297,18.163
		c-100.208-31.186-143.473-112.97-150.87-127.549c8.863-15.551,66.407-112.671,189.335-139.856
		c127.416-28.176,223.264,41.297,236.97,51.595c10.109,6.291,117.601,75.762,124.367,206.332
		C2005.817,263.486,1949.933,359.086,1857.978,407.511z"/>
</g>
</svg>
