<svg xmlns="http://www.w3.org/2000/svg" xmlns:xlink="http://www.w3.org/1999/xlink" width="225.043" height="143.174" viewBox="0 0 225.043 143.174">
  <defs>
    <filter id="Path_90" x="0" y="0.985" width="225.043" height="142.189" filterUnits="userSpaceOnUse">
      <feOffset dy="4" input="SourceAlpha"/>
      <feGaussianBlur stdDeviation="2" result="blur"/>
      <feFlood flood-opacity="0.161"/>
      <feComposite operator="in" in2="blur"/>
      <feComposite in="SourceGraphic"/>
    </filter>
  </defs>
  <g id="UTM_LOGO" data-name="UTM LOGO" transform="translate(-2683.319 -2255.012)">
    <g transform="matrix(1, 0, 0, 1, 2683.32, 2255.01)" filter="url(#Path_90)">
      <path id="Path_90-2" data-name="Path 90" d="M2577.894,2206.987l10.793-20h-50.243a65.11,65.11,0,0,0-112.558,0h-50.243l10.793,20-10.793,20H2416.4l-3.9,6.666v3.809h0v.635h0v30.792h0v.635h0v4.127h33.209a65.129,65.129,0,0,0,72.911,0h33.554v-40l-3.9-6.666h40.412Z" transform="translate(-2369.64 -2151.63)" fill="#fbd000"/>
    </g>
    <path id="Path_77" data-name="Path 77" d="M2903.155,2340.857H2688.526L2699.4,2361l-10.874,20.148h214.629L2892.282,2361Z" transform="translate(0 -50.735)" fill="#fbd000"/>
    <g id="Group_355" data-name="Group 355" transform="translate(2692.085 2294.119)">
      <g id="Group_352" data-name="Group 352" transform="translate(0 0)">
        <rect id="Rectangle_198" data-name="Rectangle 198" width="1.599" height="0.64" fill="#671812"/>
      </g>
      <g id="Group_353" data-name="Group 353" transform="translate(4.843 0)">
        <path id="Path_78" data-name="Path 78" d="M2907.865,2351.714h-3.244v-.64h3.244Zm-6.487,0h-3.244v-.64h3.244Zm-6.487,0h-3.244v-.64h3.244Zm-6.488,0h-3.244v-.64h3.244Zm-6.488,0h-3.244v-.64h3.244Zm-6.487,0h-3.244v-.64h3.244Zm-6.488,0H2865.7v-.64h3.243Zm-6.487,0h-3.244v-.64h3.244Zm-6.488,0h-3.244v-.64h3.244Zm-6.488,0h-3.243v-.64h3.243Zm-6.487,0h-3.243v-.64h3.243Zm-6.487,0h-3.244v-.64h3.244Zm-6.487,0h-3.244v-.64h3.244Zm-6.488,0h-3.244v-.64h3.244Zm-6.487,0H2813.8v-.64h3.244Zm-6.488,0h-3.243v-.64h3.243Zm-6.488,0h-3.243v-.64h3.243Zm-6.487,0h-3.244v-.64h3.244Zm-6.488,0h-3.243v-.64h3.243Zm-6.487,0h-3.244v-.64h3.244Zm-6.487,0h-3.244v-.64h3.244Zm-6.488,0h-3.244v-.64h3.244Zm-6.487,0H2761.9v-.64h3.244Zm-6.488,0h-3.244v-.64h3.244Zm-6.488,0h-3.243v-.64h3.243Zm-6.487,0h-3.244v-.64h3.244Zm-6.488,0h-3.244v-.64h3.244Zm-6.487,0h-3.243v-.64h3.243Zm-6.487,0h-3.244v-.64h3.244Zm-6.488,0h-3.243v-.64h3.243Zm-6.487,0H2710v-.64h3.243Z" transform="translate(-2709.998 -2351.074)" fill="#671812"/>
      </g>
      <g id="Group_354" data-name="Group 354" transform="translate(205.954 0)">
        <rect id="Rectangle_199" data-name="Rectangle 199" width="1.599" height="0.64" fill="#671812"/>
      </g>
    </g>
    <g id="Group_359" data-name="Group 359" transform="translate(2692.085 2325.78)">
      <g id="Group_356" data-name="Group 356" transform="translate(0 0)">
        <rect id="Rectangle_200" data-name="Rectangle 200" width="1.599" height="0.64" fill="#671812"/>
      </g>
      <g id="Group_357" data-name="Group 357" transform="translate(4.843)">
        <path id="Path_79" data-name="Path 79" d="M2907.865,2432.632h-3.244v-.64h3.244Zm-6.487,0h-3.244v-.64h3.244Zm-6.487,0h-3.244v-.64h3.244Zm-6.488,0h-3.244v-.64h3.244Zm-6.488,0h-3.244v-.64h3.244Zm-6.487,0h-3.244v-.64h3.244Zm-6.488,0H2865.7v-.64h3.243Zm-6.487,0h-3.244v-.64h3.244Zm-6.488,0h-3.244v-.64h3.244Zm-6.488,0h-3.243v-.64h3.243Zm-6.487,0h-3.243v-.64h3.243Zm-6.487,0h-3.244v-.64h3.244Zm-6.487,0h-3.244v-.64h3.244Zm-6.488,0h-3.244v-.64h3.244Zm-6.487,0H2813.8v-.64h3.244Zm-6.488,0h-3.243v-.64h3.243Zm-6.488,0h-3.243v-.64h3.243Zm-6.487,0h-3.244v-.64h3.244Zm-6.488,0h-3.243v-.64h3.243Zm-6.487,0h-3.244v-.64h3.244Zm-6.487,0h-3.244v-.64h3.244Zm-6.488,0h-3.244v-.64h3.244Zm-6.487,0H2761.9v-.64h3.244Zm-6.488,0h-3.244v-.64h3.244Zm-6.488,0h-3.243v-.64h3.243Zm-6.487,0h-3.244v-.64h3.244Zm-6.488,0h-3.244v-.64h3.244Zm-6.487,0h-3.243v-.64h3.243Zm-6.487,0h-3.244v-.64h3.244Zm-6.488,0h-3.243v-.64h3.243Zm-6.487,0H2710v-.64h3.243Z" transform="translate(-2709.998 -2431.992)" fill="#671812"/>
      </g>
      <g id="Group_358" data-name="Group 358" transform="translate(205.954 0)">
        <rect id="Rectangle_201" data-name="Rectangle 201" width="1.599" height="0.64" fill="#671812"/>
      </g>
    </g>
    <path id="Path_80" data-name="Path 80" d="M3100.276,2387.868l-27.5-47.011v38.7l27.5,48.61Z" transform="translate(-233.904 -50.735)" fill="#b3941e"/>
    <path id="Path_81" data-name="Path 81" d="M2783.428,2387.868l27.5-47.011v38.7l-27.5,48.61Z" transform="translate(-57.77 -50.735)" fill="#b3941e"/>
    <path id="Path_82" data-name="Path 82" d="M2926.353,2323.09a65.579,65.579,0,1,1-65.579-65.579A65.58,65.58,0,0,1,2926.353,2323.09Z" transform="translate(-64.932 0)" fill="none" stroke="#720a12" stroke-miterlimit="10" stroke-width="5"/>
    <path id="Path_83" data-name="Path 83" d="M2928.841,2330.056a61.1,61.1,0,1,1-61.1-61.1A61.1,61.1,0,0,1,2928.841,2330.056Z" transform="translate(-71.898 -6.966)" fill="#720a12"/>
    <g id="Group_360" data-name="Group 360" transform="translate(2738.576 2265.827)">
      <path id="Path_84" data-name="Path 84" d="M2873.742,2393.293v-2.559c1.681,0,3.379-.079,5.046-.232l.235,2.547C2877.279,2393.21,2875.5,2393.292,2873.742,2393.293Zm-5.28-.238c-1.753-.159-3.516-.4-5.238-.721l.466-2.516c1.646.3,3.33.536,5,.688Zm15.8-.733-.468-2.515c1.651-.308,3.3-.7,4.917-1.155l.7,2.461C2887.721,2391.593,2885.99,2392,2884.261,2392.322Zm-26.186-1.19c-1.689-.479-3.377-1.042-5.017-1.676l.923-2.386c1.566.606,3.178,1.144,4.791,1.6Zm36.349-1.7-.926-2.385c1.563-.606,3.116-1.294,4.618-2.044l1.143,2.289C2897.686,2388.076,2896.059,2388.8,2894.423,2389.43Zm-46.2-2.11c-1.57-.782-3.125-1.648-4.621-2.574l1.347-2.175c1.428.885,2.913,1.712,4.414,2.459Zm55.657-2.609-1.35-2.173c1.425-.885,2.826-1.847,4.165-2.86l1.544,2.04C2906.834,2382.778,2905.367,2383.785,2903.875,2384.711Zm-64.641-2.955c-1.4-1.059-2.772-2.2-4.069-3.377l1.722-1.891c1.241,1.13,2.55,2.215,3.889,3.227Zm73.065-3.42-1.725-1.89c1.239-1.131,2.441-2.333,3.572-3.574l1.89,1.723C2914.854,2375.895,2913.6,2377.153,2912.3,2378.336Zm-80.877-3.694c-1.185-1.3-2.324-2.664-3.384-4.063l2.04-1.545c1.013,1.337,2.1,2.643,3.233,3.883Zm88-4.114-2.041-1.543c1.011-1.338,1.973-2.74,2.859-4.167l2.174,1.348C2921.482,2367.661,2920.476,2369.129,2919.418,2370.529Zm-94.375-4.306c-.927-1.492-1.8-3.044-2.582-4.615l2.288-1.145c.751,1.5,1.581,2.985,2.466,4.409Zm99.943-4.674-2.289-1.142c.749-1.5,1.437-3.057,2.042-4.621l2.385.924C2926.49,2358.347,2925.77,2359.975,2924.986,2361.549Zm-104.667-4.775c-.637-1.64-1.2-3.326-1.686-5.014l2.46-.7c.46,1.612,1,3.223,1.609,4.788Zm108.485-5.079-2.462-.7c.458-1.615.846-3.27,1.152-4.918l2.516.467C2929.689,2348.271,2929.283,2350,2928.8,2351.694Zm-111.383-5.082c-.322-1.724-.567-3.487-.73-5.237l2.548-.236c.155,1.673.39,3.356.7,5Zm113.312-5.305-2.548-.233c.153-1.667.23-3.365.23-5.047v-.131h2.558v.131C2930.973,2337.787,2930.892,2339.563,2930.733,2341.307ZM2819,2336.094h-2.558v-.066c0-1.736.078-3.49.234-5.213l2.548.23c-.149,1.647-.224,3.323-.224,4.983Zm109.171-5.24c-.156-1.674-.394-3.357-.7-5l2.514-.473c.324,1.723.572,3.484.736,5.236Zm-108.262-4.813-2.516-.464c.319-1.732.723-3.464,1.2-5.151l2.462.7C2820.6,2322.731,2820.217,2324.386,2819.912,2326.04Zm106.4-5.1c-.461-1.612-1-3.222-1.615-4.786l2.384-.93c.639,1.637,1.208,3.324,1.691,5.011Zm-103.651-4.607-2.386-.922c.633-1.639,1.35-3.268,2.133-4.841l2.291,1.14C2823.946,2313.208,2823.26,2314.764,2822.656,2316.329Zm99.984-4.794c-.751-1.5-1.583-2.981-2.47-4.406l2.171-1.353c.93,1.491,1.8,3.043,2.587,4.612Zm-95.49-4.245-2.176-1.346c.923-1.492,1.928-2.96,2.986-4.364l2.043,1.541C2828.991,2304.462,2828.031,2305.865,2827.149,2307.291Zm90.153-4.321c-1.015-1.336-2.1-2.641-3.239-3.879l1.887-1.728c1.186,1.3,2.326,2.661,3.388,4.059Zm-84.074-3.74-1.893-1.722c1.181-1.3,2.437-2.558,3.734-3.744l1.727,1.887C2835.557,2296.786,2834.356,2297.99,2833.228,2299.23Zm77.256-3.7c-1.242-1.128-2.552-2.213-3.892-3.223l1.539-2.043c1.4,1.057,2.774,2.192,4.073,3.373Zm-69.807-3.11-1.547-2.038c1.4-1.061,2.864-2.07,4.356-3l1.353,2.172C2843.413,2290.438,2842.012,2291.4,2840.677,2292.416Zm61.742-2.965c-1.428-.882-2.914-1.708-4.417-2.453l1.138-2.292c1.573.781,3.129,1.645,4.624,2.569Zm-53.174-2.368-1.145-2.287c1.572-.788,3.2-1.51,4.832-2.146l.928,2.384C2852.3,2285.642,2850.747,2286.331,2849.245,2287.083Zm44.133-2.119c-1.565-.6-3.177-1.14-4.793-1.6l.695-2.462c1.691.477,3.379,1.039,5.018,1.671Zm-34.729-1.543-.7-2.46c1.687-.482,3.418-.89,5.147-1.215l.471,2.515C2861.912,2282.57,2860.258,2282.961,2858.648,2283.421Zm25.018-1.2c-1.649-.3-3.332-.533-5-.683l.229-2.548c1.751.157,3.513.4,5.24.715Zm-15.1-.666-.238-2.547c1.745-.163,3.521-.247,5.281-.25l0,2.559C2871.931,2281.325,2870.233,2281.4,2868.566,2281.56Z" transform="translate(-2816.444 -2278.764)" fill="#edcc00"/>
    </g>
    <g id="Group_368" data-name="Group 368" transform="translate(2762.888 2284.968)">
      <g id="Group_365" data-name="Group 365" transform="translate(1.781)">
        <g id="Group_362" data-name="Group 362">
          <g id="Group_361" data-name="Group 361">
            <path id="Path_85" data-name="Path 85" d="M2908.393,2327.684h-25.26v16.526a5.158,5.158,0,0,0,5.094,5.216h25.261V2332.9A5.156,5.156,0,0,0,2908.393,2327.684Z" transform="translate(-2883.133 -2327.684)" fill="#fbd000"/>
          </g>
        </g>
        <g id="Group_364" data-name="Group 364" transform="translate(31.986)">
          <g id="Group_363" data-name="Group 363">
            <path id="Path_86" data-name="Path 86" d="M2969.976,2327.684h25.264v16.526a5.159,5.159,0,0,1-5.1,5.216h-25.259V2332.9A5.158,5.158,0,0,1,2969.976,2327.684Z" transform="translate(-2964.882 -2327.684)" fill="#fbd000"/>
          </g>
        </g>
      </g>
      <g id="Group_367" data-name="Group 367" transform="translate(0 24.593)">
        <g id="Group_366" data-name="Group 366">
          <path id="Path_87" data-name="Path 87" d="M2912.97,2390.539V2406.9a10.048,10.048,0,1,1-2.866,0v-16.362c-17.534.768-31.521,15.563-31.521,33.707,0,18.634,14.75,33.749,32.955,33.749s32.949-15.115,32.949-33.749C2944.486,2406.1,2930.5,2391.307,2912.97,2390.539Zm-1.433,57.146c-12.9,0-23.364-10.708-23.364-23.919a24.229,24.229,0,0,1,3.817-13.1,21.216,21.216,0,0,0-.663,5.268,20.21,20.21,0,1,0,40.408,0,21.354,21.354,0,0,0-.659-5.263,24.218,24.218,0,0,1,3.814,13.1C2934.891,2436.977,2924.432,2447.685,2911.537,2447.685Z" transform="translate(-2878.582 -2390.539)" fill="#fbd000"/>
        </g>
      </g>
    </g>
    <rect id="Rectangle_202" data-name="Rectangle 202" width="140.714" height="40.295" transform="translate(2725.658 2337.133)" fill="#fbd000"/>
    <g id="Group_372" data-name="Group 372" transform="translate(2725.658 2340.971)">
      <g id="Group_369" data-name="Group 369" transform="translate(0 0)">
        <rect id="Rectangle_203" data-name="Rectangle 203" width="1.599" height="0.64" fill="#671812"/>
      </g>
      <g id="Group_370" data-name="Group 370" transform="translate(4.797 0)">
        <path id="Path_88" data-name="Path 88" d="M2926.808,2471.457h-3.2v-.64h3.2Zm-6.4,0h-3.2v-.64h3.2Zm-6.4,0h-3.2v-.64h3.2Zm-6.4,0h-3.2v-.64h3.2Zm-6.4,0h-3.2v-.64h3.2Zm-6.4,0h-3.2v-.64h3.2Zm-6.4,0h-3.2v-.64h3.2Zm-6.4,0h-3.2v-.64h3.2Zm-6.4,0h-3.2v-.64h3.2Zm-6.4,0h-3.2v-.64h3.2Zm-6.4,0h-3.2v-.64h3.2Zm-6.4,0h-3.2v-.64h3.2Zm-6.4,0h-3.2v-.64h3.2Zm-6.4,0h-3.2v-.64h3.2Zm-6.4,0h-3.2v-.64h3.2Zm-6.4,0h-3.2v-.64h3.2Zm-6.4,0h-3.2v-.64h3.2Zm-6.4,0h-3.2v-.64h3.2Zm-6.4,0h-3.2v-.64h3.2Zm-6.4,0h-3.2v-.64h3.2Zm-6.4,0h-3.2v-.64h3.2Z" transform="translate(-2795.688 -2470.817)" fill="#671812"/>
      </g>
      <g id="Group_371" data-name="Group 371" transform="translate(139.115 0)">
        <rect id="Rectangle_204" data-name="Rectangle 204" width="1.599" height="0.64" fill="#671812"/>
      </g>
    </g>
    <g id="Group_376" data-name="Group 376" transform="translate(2725.658 2372.632)">
      <g id="Group_373" data-name="Group 373" transform="translate(0 0)">
        <rect id="Rectangle_205" data-name="Rectangle 205" width="1.599" height="0.64" fill="#671812"/>
      </g>
      <g id="Group_374" data-name="Group 374" transform="translate(4.797 0)">
        <path id="Path_89" data-name="Path 89" d="M2926.808,2552.376h-3.2v-.64h3.2Zm-6.4,0h-3.2v-.64h3.2Zm-6.4,0h-3.2v-.64h3.2Zm-6.4,0h-3.2v-.64h3.2Zm-6.4,0h-3.2v-.64h3.2Zm-6.4,0h-3.2v-.64h3.2Zm-6.4,0h-3.2v-.64h3.2Zm-6.4,0h-3.2v-.64h3.2Zm-6.4,0h-3.2v-.64h3.2Zm-6.4,0h-3.2v-.64h3.2Zm-6.4,0h-3.2v-.64h3.2Zm-6.4,0h-3.2v-.64h3.2Zm-6.4,0h-3.2v-.64h3.2Zm-6.4,0h-3.2v-.64h3.2Zm-6.4,0h-3.2v-.64h3.2Zm-6.4,0h-3.2v-.64h3.2Zm-6.4,0h-3.2v-.64h3.2Zm-6.4,0h-3.2v-.64h3.2Zm-6.4,0h-3.2v-.64h3.2Zm-6.4,0h-3.2v-.64h3.2Zm-6.4,0h-3.2v-.64h3.2Z" transform="translate(-2795.688 -2551.736)" fill="#671812"/>
      </g>
      <g id="Group_375" data-name="Group 375" transform="translate(139.115 0)">
        <rect id="Rectangle_206" data-name="Rectangle 206" width="1.599" height="0.64" fill="#671812"/>
      </g>
    </g>
    <text id="UTMChat" transform="translate(2798.105 2366.632)" fill="#720a12" font-size="25" font-family="BebasNeueBold, Bebas Neue"><tspan x="-35.412" y="0">UTMChat</tspan></text>
  </g>
</svg>
